<?xml version="1.0" encoding="UTF-8"?>
<svg xmlns="http://www.w3.org/2000/svg" viewBox="0 0 427.28 183.69" role="img" aria-label="NUFI logo mark">
  <path fill="#3c4d8a" d="M217.81,128.96v53.15c-5.62-.03-11.04-.9-16.16-2.48-11.58-3.54-21.61-10.7-28.75-20.18l-.07-.07-23.53-22.75-5.27-5.09-18.28-17.67-10.53-10.18-5.79-5.6-6.8-6.57-.42-.41-15.8-15.27-7.74-7.49-8.39-8.11V.19c5.61.04,11.02.91,16.14,2.49,11.57,3.54,21.57,10.66,28.72,20.08l.02.03s.03.04.04.07c0,0,.01,0,.01.01h0s.01-.01.01-.01l22,22.76,6.8,7.03,15.19,15.72,13.62,14.08,3.6,3.73,4.79,4.95,2.13,2.21,18.28,18.91h0s1.57,1.63,1.57,1.63l14.59,15.08Z"/>
  <path fill="#293069" d="M288.07,68.37v69.03c-1.8,8.11-5.36,15.58-10.26,21.99-4.95,6.47-11.28,11.88-18.55,15.8-8.24,4.44-17.71,6.96-27.77,6.96-.34,0-.69,0-1.03-.01v-113.05s.04.01.07.01c-.02-.1-.04-.21-.07-.31v-23.18h0c1.77-8.43,5.45-16.15,10.55-22.76,4.9-6.34,11.11-11.64,18.25-15.52,8.37-4.55,18.02-7.15,28.29-7.15.15,0,.32,0,.47.01v68.17h.04Z"/>
  <path fill="#293069" d="M57.57,22.86V.19c-.15-.01-.3-.01-.45-.01-10.3,0-19.97,2.73-28.31,7.51h-.07c-6.73,3.84-12.58,9.01-17.24,15.16-5.01,6.61-8.59,14.35-10.34,22.76-.73,3.51-1.12,7.13-1.17,10.85v125.69h57.61V22.86h-.04Z"/>
  <rect fill="#e99a97" x="335.09" y="96.66" width="57.7" height="56.68"/>
  <rect fill="#3c4d8a" x="300.61" width="126.67" height="56.71"/>
</svg>
